<svg xmlns="http://www.w3.org/2000/svg" viewBox="0 0 2500 2500" version="1.1">
	<path d="M 0 1011.501 L 0 1964 595.500 1964 L 1191 1964 1191 1904.500 L 1191 1845 655 1845 L 119 1845 119 1011.500 L 119 178 1250 178 L 2381 178 2381 535.500 L 2381 893 2440.500 893 L 2500 893 2500 1011.500 L 2500 1130 2440.500 1130 L 2381 1130 2381 1071 L 2381 1012 2321.500 1012 L 2262 1012 2262 833.500 L 2262 655 2083.500 655 L 1905 655 1905 595.500 L 1905 536 1845.500 536 L 1786 536 1786 475.992 L 1786 415.984 1726.250 416.242 L 1666.500 416.500 1666.242 476.250 L 1665.984 536 1607 536 L 1548.016 536 1547.758 595.250 L 1547.500 654.500 1369.253 654.753 L 1191.005 655.005 1190.753 833.253 L 1190.500 1011.500 1130.750 1011.758 L 1071 1012.016 1071 1071.008 L 1071 1130 1011.500 1130 L 952 1130 952 1190 L 952 1250 1011.500 1250 L 1071 1250 1071 1309.500 L 1071 1369 1131 1369 L 1191 1369 1191 1547.500 L 1191 1726 1250 1726 L 1309 1726 1309 2083.500 L 1309 2441 1428.500 2441 L 1548 2441 1548 2381 L 1548 2321 1607.500 2321 L 1667 2321 1667 2261.500 L 1667 2202 1726.500 2202 L 1786 2202 1786 2261.500 L 1786 2321 1845.500 2321 L 1905 2321 1905 2381 L 1905 2441 2024 2441 L 2143 2441 2143 2083.500 L 2143 1726 2202.500 1726 L 2262 1726 2262 1547.500 L 2262 1369 2321.500 1369 L 2381 1369 2381 1309.500 L 2381 1250 2440.500 1250 L 2500 1250 2500 1369 L 2500 1488 2440.500 1488 L 2381 1488 2381 1666.500 L 2381 1845 2321.500 1845 L 2262 1845 2262 1904.504 L 2262 1964.008 2381.250 1963.754 L 2500.500 1963.500 2500.751 1011 L 2501.001 58.500 1250.501 58.751 L 0 59.002 0 1011.501 M 0.498 1011.500 C 0.498 1535.650, 0.611 1749.925, 0.750 1487.667 C 0.889 1225.410, 0.889 796.560, 0.750 534.667 C 0.611 272.775, 0.498 487.350, 0.498 1011.500 M 238 1012 L 238 1726 654.500 1726 L 1071 1726 1071 1666.500 L 1071 1607 714 1607 L 357 1607 357 1012 L 357 417 952.500 417 L 1548 417 1548 357.500 L 1548 298 893 298 L 238 298 238 1012 M 1905 357.500 L 1905 417 2024 417 L 2143 417 2143 476.500 L 2143 536 2202.500 536 L 2262 536 2262 417 L 2262 298 2083.500 298 L 1905 298 1905 357.500 M 476 714.500 L 476 893 655 893 L 834 893 834 714.500 L 834 536 655 536 L 476 536 476 714.500 M 1667 595.500 L 1667 655 1607.500 655 L 1548 655 1548 714 L 1548 773 1726.500 773 L 1905 773 1905 714 L 1905 655 1845.500 655 L 1786 655 1786 595.500 L 1786 536 1726.500 536 L 1667 536 1667 595.500 M 1310 893 L 1310 1012 1369.500 1012 L 1429 1012 1429 1190.500 L 1429 1369 1369.500 1369 L 1310 1369 1310 1488 L 1310 1607 1429 1607 L 1548 1607 1548 1666.500 L 1548 1726 1607.500 1726 L 1667 1726 1667 1785.500 L 1667 1845 1726.500 1845 L 1786 1845 1786 1785.508 L 1786 1726.016 1845.250 1725.758 L 1904.500 1725.500 1904.758 1666.250 L 1905.016 1607 2024.008 1607 L 2143 1607 2143 1488.008 L 2143 1369.016 2202.250 1368.758 L 2261.500 1368.500 2261.758 1309.250 L 2262.016 1250 2321.508 1250 L 2381 1250 2381 1190.500 L 2381 1131 2321.500 1131 L 2262 1131 2262 1071.500 L 2262 1012 2202.500 1012 L 2143 1012 2143 893 L 2143 774 2024 774 L 1905 774 1905 833.500 L 1905 893 1726.500 893 L 1548 893 1548 833.500 L 1548 774 1429 774 L 1310 774 1310 893 M 1429 952.500 L 1429 1012 1488.500 1012 L 1548 1012 1548 952.500 L 1548 893 1488.500 893 L 1429 893 1429 952.500 M 1905 952.500 L 1905 1012 1964 1012 L 2023 1012 2023 1190.500 L 2023 1369 1964 1369 L 1905 1369 1905 1428.500 L 1905 1488 1726.500 1488 L 1548 1488 1548 1428.500 L 1548 1369 1488.500 1369 L 1429 1369 1429 1428.492 L 1429 1487.984 1488.250 1488.242 L 1547.500 1488.500 1547.758 1547.750 L 1548.016 1607 1726.508 1607 L 1905 1607 1905 1547.500 L 1905 1488 1964.500 1488 L 2024 1488 2024 1428.500 L 2024 1369 2083.500 1369 L 2143 1369 2143 1190.500 L 2143 1012 2083.500 1012 L 2024 1012 2024 952.500 L 2024 893 1964.500 893 L 1905 893 1905 952.500 M 476.242 1071.250 L 476.500 1130.500 655 1130.500 L 833.500 1130.500 833.758 1071.250 L 834.016 1012 655 1012 L 475.984 1012 476.242 1071.250 M 1191 1071.500 L 1191 1131 1131 1131 L 1071 1131 1071 1190.500 L 1071 1250 1131 1250 L 1191 1250 1191 1309.500 L 1191 1369 1250 1369 L 1309 1369 1309 1190.500 L 1309 1012 1250 1012 L 1191 1012 1191 1071.500 M 476 1309.500 L 476 1369 655 1369 L 834 1369 834 1309.500 L 834 1250 655 1250 L 476 1250 476 1309.500" stroke="none" fill="#ffffff" fill-rule="evenodd"></path>
</svg>