<?xml version="1.0" standalone="no"?>
<!DOCTYPE svg PUBLIC "-//W3C//DTD SVG 20010904//EN" "http://www.w3.org/TR/2001/REC-SVG-20010904/DTD/svg10.dtd">
<svg version="1.0" xmlns="http://www.w3.org/2000/svg"
  width="500px" height="600px" viewBox="0 0 316.000000 388.000000"
  preserveAspectRatio="xMidYMid meet">

  <g transform="translate(0.000000,388.000000) scale(0.100000,-0.100000)"
    fill="#fffff" stroke="none">
    <path
      d="M154 3741 c-2 -2 -4 -24 -4 -48 l0 -43 1435 0 1434 0 7 34 c3 19 4
41 2 48 -4 11 -269 13 -1437 13 -788 0 -1435 -2 -1437 -4z" />
    <path
      d="M150 2356 l0 -1204 135 -101 c81 -60 141 -99 148 -95 7 4 9 4 5 -1
-4 -4 -3 -14 3 -22 14 -16 33 -18 23 -1 -4 7 -3 8 5 4 6 -4 9 -11 6 -16 -7
-12 304 -242 317 -234 6 4 8 3 5 -3 -9 -14 19 -37 34 -27 7 4 9 3 6 -3 -9 -14
300 -246 315 -237 6 4 8 3 5 -3 -9 -14 422 -336 439 -329 8 3 333 244 724 537
l711 531 -3 1204 -3 1204 -1437 0 -1438 0 0 -1204z m1541 947 c30 -76 32 -247
5 -337 -21 -71 -68 -167 -90 -185 -13 -11 -17 -9 -27 15 -28 71 -39 122 -39
182 0 58 6 78 52 176 30 66 53 130 56 159 2 26 8 47 13 47 4 0 18 -26 30 -57z
m-239 -150 c42 -44 51 -79 58 -228 5 -111 11 -150 28 -187 24 -54 18 -58 -39
-34 -53 22 -90 56 -110 100 -24 53 -24 99 1 171 13 38 20 84 20 132 0 40 4 73
8 73 5 0 20 -12 34 -27z m323 -262 c0 -66 -4 -83 -25 -114 -24 -35 -104 -86
-117 -74 -3 4 9 24 26 45 42 54 79 137 87 195 10 75 29 41 29 -52z m-390 -211
c44 -11 108 -34 142 -50 l63 -29 72 33 c181 83 424 96 628 34 72 -22 160 -66
160 -80 0 -17 -143 -2 -205 21 -138 53 -309 51 -466 -4 -61 -21 -91 -25 -186
-26 -97 0 -124 3 -190 26 -163 57 -339 56 -490 0 -67 -26 -183 -35 -183 -15 0
25 177 91 295 110 90 14 268 4 360 -20z m1063 -157 l3 -33 -865 0 -866 0 0 28
c0 16 3 32 7 35 3 4 392 6 862 5 l856 -3 3 -32z m212 -658 c79 -192 158 -382
176 -422 37 -77 81 -123 119 -123 32 0 56 -10 49 -21 -6 -10 -257 -13 -267 -3
-3 3 -1 14 4 23 7 12 -6 55 -53 171 l-64 155 -141 3 c-165 3 -143 19 -203
-149 -54 -149 -53 -174 6 -183 10 -2 20 -8 22 -14 3 -9 -37 -12 -147 -12 -83
0 -151 4 -151 9 0 11 25 21 54 21 61 0 68 14 317 657 96 250 106 270 124 252
7 -8 77 -171 155 -364z m-917 351 l328 0 -3 -80 c-3 -85 -16 -104 -30 -48 -13
50 -52 62 -198 62 l-120 0 1 -332 c0 -325 7 -469 22 -485 4 -4 29 -10 54 -13
26 -3 48 -11 51 -17 3 -10 -35 -13 -167 -13 -94 0 -171 4 -171 9 0 11 25 21
50 21 36 0 40 48 40 446 l0 384 -131 0 c-72 0 -139 -5 -149 -10 -11 -6 -31
-27 -44 -47 -35 -51 -43 -24 -21 67 l17 71 72 -8 c39 -4 219 -8 399 -7z
m-1245 -13 c2 -9 -7 -13 -27 -13 -61 0 -63 -13 -59 -347 3 -251 7 -305 21
-342 42 -107 116 -161 232 -169 137 -9 239 53 280 168 17 48 19 91 23 350 4
330 4 328 -63 339 -21 3 -40 12 -42 18 -4 10 30 12 144 10 91 -1 148 -6 147
-12 0 -5 -11 -12 -25 -15 -13 -3 -33 -10 -44 -17 -18 -11 -20 -27 -26 -315 -7
-362 -12 -384 -108 -479 -185 -182 -548 -125 -631 99 -29 76 -40 203 -40 459
0 218 0 222 -22 237 -12 9 -35 16 -50 16 -18 0 -28 5 -28 15 0 12 24 14 157
12 114 -1 157 -5 161 -14z" />
    <path
      d="M2421 1895 c-28 -81 -54 -157 -57 -171 l-6 -24 121 0 c67 0 121 2
121 4 0 5 -122 330 -125 334 -1 2 -26 -63 -54 -143z" />
  </g>
</svg>